HIERARCHY
ROOT Hips
{
	OFFSET 0.000000 0.000000 0.000000
	CHANNELS 6 Xposition Yposition Zposition Zrotation Yrotation Xrotation 
	JOINT LHipJoint
	{
		OFFSET 0.000000 0.000000 0.000000
		CHANNELS 3 Zrotation Yrotation Xrotation
		JOINT LeftUpLeg
		{
			OFFSET 1.363060 -1.794630 0.839290
			CHANNELS 3 Zrotation Yrotation Xrotation
			JOINT LeftLeg
			{
				OFFSET 2.448110 -6.726130 0.000000
				CHANNELS 3 Zrotation Yrotation Xrotation
				JOINT LeftFoot
				{
					OFFSET 2.562200 -7.039590 0.000000
					CHANNELS 3 Zrotation Yrotation Xrotation
					JOINT LeftToeBase
					{
						OFFSET 0.157640 -0.433110 2.322550
						CHANNELS 3 Zrotation Yrotation Xrotation
						End Site
						{
							OFFSET 0.000000 0.000000 0.000000
						}
					}
				}
			}
		}
	}
	JOINT RHipJoint
	{
		OFFSET 0.000000 0.000000 0.000000
		CHANNELS 3 Zrotation Yrotation Xrotation
		JOINT RightUpLeg
		{
			OFFSET -1.305520 -1.794630 0.839290
			CHANNELS 3 Zrotation Yrotation Xrotation
			JOINT RightLeg
			{
				OFFSET -2.542530 -6.985550 0.000000
				CHANNELS 3 Zrotation Yrotation Xrotation
				JOINT RightFoot
				{
					OFFSET -2.568260 -7.056230 0.000000
					CHANNELS 3 Zrotation Yrotation Xrotation
					JOINT RightToeBase
					{
						OFFSET -0.164730 -0.452590 2.363150
						CHANNELS 3 Zrotation Yrotation Xrotation
						End Site
						{
							OFFSET 0.000000 0.000000 0.000000
						}
					}
				}
			}
		}
	}
	JOINT LowerBack
	{
		OFFSET 0.000000 0.000000 0.000000
		CHANNELS 3 Zrotation Yrotation Xrotation
		JOINT Spine
		{
			OFFSET 0.028270 2.035590 -0.193380
			CHANNELS 3 Zrotation Yrotation Xrotation
			JOINT Spine1
			{
				OFFSET 0.056720 2.048850 -0.042750
				CHANNELS 3 Zrotation Yrotation Xrotation
				JOINT Neck
				{
					OFFSET 0.000000 0.000000 0.000000
					CHANNELS 3 Zrotation Yrotation Xrotation
					JOINT Neck1
					{
						OFFSET -0.054170 1.746240 0.172020
						CHANNELS 3 Zrotation Yrotation Xrotation
						JOINT Head
						{
							OFFSET 0.104070 1.761360 -0.123970
							CHANNELS 3 Zrotation Yrotation Xrotation
							End Site
							{
								OFFSET 0.000000 0.000000 0.000000
							}
						}
					}
				}
				JOINT LeftShoulder
				{
					OFFSET 0.000000 0.000000 0.000000
					CHANNELS 3 Zrotation Yrotation Xrotation
					JOINT LeftArm
					{
						OFFSET 3.362410 1.200890 -0.311210
						CHANNELS 3 Zrotation Yrotation Xrotation
						JOINT LeftForeArm
						{
							OFFSET 4.983000 -0.000000 -0.000000
							CHANNELS 3 Zrotation Yrotation Xrotation
							JOINT LeftHand
							{
								OFFSET 3.483560 -0.000000 -0.000000
								CHANNELS 3 Zrotation Yrotation Xrotation
								JOINT LeftFingerBase
								{
									OFFSET 0.000000 0.000000 0.000000
									CHANNELS 3 Zrotation Yrotation Xrotation
									JOINT LeftHandIndex1
									{
										OFFSET 0.715260 -0.000000 -0.000000
										CHANNELS 3 Zrotation Yrotation Xrotation
										End Site
										{
											OFFSET 0.000000 0.000000 0.000000
										}
									}
								}
								JOINT LThumb
								{
									OFFSET 0.000000 0.000000 0.000000
									CHANNELS 3 Zrotation Yrotation Xrotation
									End Site
									{
										OFFSET 0.000000 0.000000 0.000000
									}
								}
							}
						}
					}
				}
				JOINT RightShoulder
				{
					OFFSET 0.000000 0.000000 0.000000
					CHANNELS 3 Zrotation Yrotation Xrotation
					JOINT RightArm
					{
						OFFSET -3.136600 1.374050 -0.404650
						CHANNELS 3 Zrotation Yrotation Xrotation
						JOINT RightForeArm
						{
							OFFSET -5.241900 -0.000000 -0.000000
							CHANNELS 3 Zrotation Yrotation Xrotation
							JOINT RightHand
							{
								OFFSET -3.444170 -0.000000 -0.000000
								CHANNELS 3 Zrotation Yrotation Xrotation
								JOINT RightFingerBase
								{
									OFFSET 0.000000 0.000000 0.000000
									CHANNELS 3 Zrotation Yrotation Xrotation
									JOINT RightHandIndex1
									{
										OFFSET -0.622530 -0.000000 -0.000000
										CHANNELS 3 Zrotation Yrotation Xrotation
										End Site
										{
											OFFSET 0.000000 0.000000 0.000000
										}
									}
								}
								JOINT RThumb
								{
									OFFSET 0.000000 0.000000 0.000000
									CHANNELS 3 Zrotation Yrotation Xrotation
									End Site
									{
										OFFSET 0.000000 0.000000 0.000000
									}
								}
							}
						}
					}
				}
			}
		}
	}
}
MOTION
Frames: 5
Frame Time: 0.008333
2.339665 17.208494 -1.216160 129.001543 -85.599383 -122.061210 -10.754671 -1.016758 -0.748830 -0.705474 -0.384764 -29.804794 0.698254 2.022277 45.317113 3.496156 23.453422 18.232622 9.805100 -0.000000 -54.912500 9.173895 -0.239061 -1.064994 7.834396 2.989082 -13.484854 1.509431 -1.269223 22.138926 -2.082484 -8.514417 -9.371947 -0.152800 -0.000000 -53.872500 -0.469111 -1.836072 2.901904 -0.432440 -1.747995 -2.425582 -4.624590 -1.766599 -0.413140 6.221977 -13.013172 -8.026432 -1.421071 -0.101186 -0.108453 0.000000 0.000000 0.000000 2.178921 7.656905 0.752335 -53.010672 19.755728 32.682955 -1.155345 -71.732058 0.007215 -6.048678 -7.979081 0.430926 0.034917 0.109485 0.000000 0.000000 0.000000 0.000000 0.000000 0.000000 0.000000 4.181338 -8.305835 0.836380 60.343665 -3.653325 26.925270 1.398017 58.524277 0.003712 -5.816809 7.366071 -0.391199 0.140589 -0.165997 0.000000 0.000000 0.000000 0.000000 0.000000 0.000000 0.000000 
2.361290 17.211212 -1.252843 127.783113 -85.357370 -121.143951 -10.692982 -1.167503 -0.730908 -0.782613 -0.963724 -31.105760 0.779060 2.097929 47.731490 3.537452 23.459796 20.388781 10.462400 0.000000 -53.625900 9.261862 -0.193845 -1.126292 7.616831 2.977097 -13.187023 1.471260 -1.299000 22.216024 -2.084799 -8.541977 -9.373766 -0.149900 -0.000000 -53.903300 -0.659026 -1.808959 2.965696 -0.467305 -1.709325 -2.424888 -4.589302 -1.729111 -0.480722 6.122685 -12.885764 -7.919065 -1.412823 -0.102205 -0.079120 0.000000 0.000000 0.000000 2.346616 7.341496 0.714283 -53.258273 20.166236 32.751323 -1.147271 -71.745836 0.006631 -6.084459 -8.005101 0.434987 0.038579 0.108996 0.000000 0.000000 0.000000 0.000000 0.000000 0.000000 0.000000 4.018687 -8.157763 0.858599 60.361621 -3.317396 27.048303 1.402666 58.294688 0.003642 -5.813537 7.346550 -0.390004 0.140556 -0.166215 0.000000 0.000000 0.000000 0.000000 0.000000 0.000000 0.000000 
2.383518 17.214008 -1.288851 126.407820 -85.107422 -120.057934 -10.617585 -1.321020 -0.716155 -0.901732 -1.559527 -32.443571 0.844927 2.172338 50.106877 3.570227 23.380053 22.288431 10.982200 0.000000 -52.181800 9.360003 -0.141892 -1.178144 7.368232 3.014591 -12.916491 1.423143 -1.331796 22.329928 -2.101133 -8.637725 -9.386192 -0.147400 0.000000 -53.917600 -0.868180 -1.788648 3.025482 -0.505570 -1.676513 -2.424506 -4.553130 -1.697491 -0.548169 6.021228 -12.761683 -7.812158 -1.403831 -0.103153 -0.049978 0.000000 0.000000 0.000000 2.520109 7.020519 0.674928 -53.494925 20.592123 32.823971 -1.136812 -71.807454 0.006034 -6.126737 -8.037439 0.439948 0.042544 0.108792 0.000000 0.000000 0.000000 0.000000 0.000000 0.000000 0.000000 3.853986 -8.015583 0.881795 60.364949 -2.940625 27.199507 1.406681 58.070643 0.003571 -5.811275 7.327455 -0.388907 0.140612 -0.166507 0.000000 0.000000 0.000000 0.000000 0.000000 0.000000 0.000000 
2.406130 17.216782 -1.324149 124.914613 -84.850152 -118.841481 -10.530062 -1.473472 -0.706914 -1.065129 -2.162380 -33.822078 0.901884 2.251235 52.457609 3.593906 23.237311 23.832737 11.347000 0.000001 -50.812301 9.468545 -0.083697 -1.220667 7.090906 3.094556 -12.674957 1.366062 -1.367465 22.482945 -2.129941 -8.793794 -9.410537 -0.144800 -0.000000 -53.914300 -1.095348 -1.775288 3.082251 -0.546960 -1.649730 -2.424247 -4.516316 -1.671901 -0.615173 5.917307 -12.638209 -7.705576 -1.394160 -0.104037 -0.021003 0.000000 0.000000 0.000000 2.697000 6.699003 0.634992 -53.715147 21.025951 32.902242 -1.124145 -71.916055 0.005431 -6.173588 -8.075391 0.445708 0.046738 0.108876 0.000000 0.000000 0.000000 0.000000 0.000000 0.000000 0.000000 3.686505 -7.876443 0.904930 60.356498 -2.530004 27.370062 1.409597 57.856279 0.003492 -5.814205 7.307176 -0.388010 0.140776 -0.166885 0.000000 0.000000 0.000000 0.000000 0.000000 0.000000 0.000000 
2.429041 17.219351 -1.358593 123.361251 -84.588951 -117.554038 -10.434253 -1.621982 -0.706428 -1.271221 -2.751905 -35.253380 0.957669 2.341170 54.809144 3.606544 23.040415 24.913502 11.533000 0.000000 -49.456699 9.585223 -0.020683 -1.253228 6.793026 3.211876 -12.463009 1.301659 -1.405285 22.672989 -2.169831 -9.003263 -9.446514 -0.141800 -0.000000 -53.892800 -1.335398 -1.768351 3.136560 -0.590311 -1.628691 -2.423736 -4.478515 -1.652026 -0.680173 5.810283 -12.516779 -7.600170 -1.383390 -0.104810 0.007571 0.000000 0.000000 0.000000 2.876015 6.385155 0.594872 -53.917517 21.453541 32.989419 -1.109647 -72.064066 0.004837 -6.221905 -8.118937 0.451867 0.051064 0.109269 0.000000 0.000000 0.000000 0.000000 0.000000 0.000000 0.000000 3.513815 -7.741932 0.926714 60.339062 -2.087593 27.555855 1.410988 57.652784 0.003386 -5.828379 7.285011 -0.387911 0.141094 -0.167351 0.000000 0.000000 0.000000 0.000000 0.000000 0.000000 0.000000 
